# Blender v2.82 (sub 7) OBJ File: 'train.blend'
# www.blender.org
o Plane
v -21.698469 0.000000 13.140490
v 21.698469 0.000000 13.140490
v -21.698469 0.000000 -31.734026
v 21.698469 0.000000 -31.734026
v 2.521949 0.000000 13.140489
v -2.521949 0.000000 13.140489
v -2.521949 0.000000 -31.734026
v 2.521949 0.000000 -31.734026
v 21.698469 0.000000 7.370792
v -21.698469 0.000000 7.370792
v 2.521949 0.000000 7.370792
v -2.521949 0.000000 7.370792
v 2.521949 4.200963 -6.131504
v 2.521949 4.200963 0.000000
v -2.521949 4.200963 -6.131504
v -2.521949 4.200963 0.000000
v 11.097493 4.200963 -6.131504
v 11.097493 4.200963 0.000000
v -11.097493 4.200963 -6.131504
v -11.097493 4.200963 0.000000
v 2.521949 4.200963 -14.896845
v -2.521949 4.200963 -14.896845
v 11.097493 4.200963 -14.896845
v -11.097493 4.200963 -14.896845
v 2.521949 4.200963 -19.754658
v -2.521949 4.200963 -19.754658
v 11.097493 4.200963 -19.754658
v -11.097493 4.200963 -19.754658
v -21.698469 0.000000 -39.928936
v 21.698469 0.000000 -39.928936
v -2.521949 0.000000 -39.928936
v 2.521949 0.000000 -39.928936
v 7.648490 0.000000 -4.134294
v 12.613282 0.000000 0.184093
v -12.613282 0.000000 0.184093
v -7.648490 0.000000 -4.134294
v 12.613282 0.000000 -22.388647
v -7.648490 0.000000 -18.070259
v 7.648490 0.000000 -18.070259
v -12.613282 0.000000 -22.388647
v 7.201358 0.000000 -22.388647
v 7.201358 0.000000 0.184093
v -5.405828 3.253480 -11.884003
v -7.201358 0.000000 0.184093
v -7.201358 0.000000 -22.388647
v -5.405828 3.253480 -10.320551
v 5.405828 3.253480 -10.320551
v 5.405828 3.253480 -11.884003
v 3.987935 3.253480 -11.884003
v 3.987935 3.253480 -10.320551
v -3.987935 3.253480 -10.320551
v -3.987935 3.253480 -11.884003
v 2.521949 0.000000 -11.102277
v -2.521949 0.000000 -11.102276
v 3.987935 0.000000 -11.102277
v -3.987935 0.000000 -11.102277
v -3.987935 0.000000 -10.320551
v -2.521949 0.000000 3.837899
v -21.698469 0.000000 3.837899
v 21.698469 0.000000 3.837899
v 2.521949 0.000000 3.837899
v -2.521949 0.000000 -26.042452
v -21.698469 0.000000 -26.042452
v 21.698469 0.000000 -26.042452
v 2.521949 0.000000 -26.042452
v -5.405828 0.000000 -10.320551
v 5.405828 0.000000 -10.320551
v 3.987935 0.000000 -10.320551
v -3.987935 0.000000 -11.884003
v -5.405828 0.000000 -11.884003
v 5.405828 0.000000 -11.884003
v 3.987935 0.000000 -11.884003
v -21.698469 -0.050000 13.140490
v 21.698469 -0.050000 13.140490
v -21.698469 -0.050000 -31.734026
v 21.698469 -0.050000 -31.734026
v 2.521949 -0.050000 13.140489
v -2.521949 -0.050000 13.140489
v -2.521949 -0.049825 -31.729847
v 2.521949 -0.049825 -31.729847
v 21.698469 -0.050000 7.370792
v -21.698469 -0.050000 7.370792
v 2.521949 -0.049594 7.364446
v -2.521949 -0.049594 7.364446
v 2.519669 4.151100 -6.128588
v 2.521949 4.151692 -0.008504
v -2.519669 4.151100 -6.128588
v -2.521949 4.151692 -0.008504
v 11.099959 4.151076 -6.129233
v 11.097493 4.150963 0.000000
v -11.099959 4.151076 -6.129233
v -11.097493 4.150963 0.000000
v 2.518909 4.151189 -14.900479
v -2.518909 4.151189 -14.900479
v 11.100344 4.151103 -14.899266
v -11.100344 4.151103 -14.899266
v 2.521949 4.151278 -19.749073
v -2.521949 4.151278 -19.749073
v 11.097493 4.150963 -19.754658
v -11.097493 4.150963 -19.754658
v -21.698469 -0.050000 -39.928936
v 21.698469 -0.050000 -39.928936
v -2.521949 -0.050000 -39.928936
v 2.521949 -0.050000 -39.928936
v 7.648490 -0.050000 -4.134294
v 12.613282 -0.050000 0.184093
v -12.613282 -0.050000 0.184093
v -7.648490 -0.050000 -4.134294
v 12.613282 -0.050000 -22.388647
v -7.648490 -0.050000 -18.070259
v 7.648490 -0.050000 -18.070259
v -12.613282 -0.050000 -22.388647
v 7.201358 -0.050000 -22.388647
v 7.201358 -0.050000 0.184093
v -5.396005 3.204851 -11.877792
v -7.201358 -0.050000 0.184093
v -7.201358 -0.050000 -22.388647
v -5.396338 3.205048 -10.328556
v 5.396338 3.205048 -10.328556
v 5.396005 3.204851 -11.877792
v 3.989240 3.204210 -11.875598
v 3.988617 3.204466 -10.330400
v -3.988617 3.204466 -10.330400
v -3.989240 3.204210 -11.875598
v 2.521949 -0.050000 -11.102277
v -2.521949 -0.050000 -11.102276
v 4.023289 -0.035354 -11.102277
v -4.023289 -0.035354 -11.102277
v -4.003010 -0.045225 -10.335626
v -2.521949 -0.050000 3.837899
v -21.698469 -0.050000 3.837899
v 21.698469 -0.050000 3.837899
v 2.521949 -0.050000 3.837899
v -2.521949 -0.050000 -26.042452
v -21.698469 -0.050000 -26.042452
v 21.698469 -0.050000 -26.042452
v 2.521949 -0.050000 -26.042452
v -5.390753 -0.045225 -10.335626
v 5.390753 -0.045225 -10.335626
v 4.003010 -0.045225 -10.335626
v -4.003010 -0.045225 -11.868928
v -5.390753 -0.045225 -11.868928
v 5.390753 -0.045225 -11.868928
v 4.003010 -0.045225 -11.868928
vt 0.509438 0.115835
vt 0.509438 0.205358
vt 0.431177 0.205358
vt 0.431177 0.115835
vt 0.133632 0.115835
vt 0.133632 0.205358
vt 0.806984 0.723802
vt 0.806984 0.812113
vt 0.509438 0.812113
vt 0.509438 0.723802
vt 0.806984 0.115835
vt 0.806984 0.205358
vt 0.431177 0.723802
vt 0.431177 0.812113
vt 0.133632 0.812113
vt 0.133632 0.723802
vt 0.509438 0.434090
vt 0.431177 0.434090
vt 0.431177 0.319724
vt 0.509438 0.319724
vt 0.298118 0.434090
vt 0.298118 0.319724
vt 0.642498 0.319724
vt 0.642498 0.434090
vt 0.721477 0.345682
vt 0.642498 0.531636
vt 0.721477 0.638295
vt 0.345670 0.345682
vt 0.431177 0.531636
vt 0.345670 0.638295
vt 0.509438 0.531636
vt 0.642498 0.626240
vt 0.509438 0.626240
vt 0.298118 0.531636
vt 0.431177 0.626240
vt 0.298118 0.626240
vt 0.431177 0.939266
vt 0.133632 0.939266
vt 0.806984 0.939266
vt 0.509438 0.939266
vt 0.431177 0.260175
vt 0.133632 0.260175
vt 0.806984 0.260175
vt 0.509438 0.260175
vt 0.509438 0.491989
vt 0.431177 0.491989
vt 0.594945 0.345682
vt 0.721477 0.345682
vt 0.594945 0.345682
vt 0.345670 0.345682
vt 0.345670 0.491989
vt 0.345670 0.638295
vt 0.594945 0.491989
vt 0.594945 0.638295
vt 0.219138 0.345682
vt 0.219138 0.638295
vt 0.721477 0.638295
vt 0.219138 0.345682
vt 0.219138 0.638295
vt 0.594945 0.638295
vt 0.000000 0.000000
vt 0.000000 0.000000
vt 0.000000 0.000000
vt 0.000000 0.000000
vt 0.000000 0.000000
vt 0.000000 0.000000
vt 0.000000 0.000000
vt 0.000000 0.000000
vt 0.404470 0.266947
vt 0.167605 0.266947
vt 0.773010 0.266947
vt 0.536145 0.266947
vt 0.167605 0.717030
vt 0.404470 0.717030
vt 0.536145 0.717030
vt 0.773010 0.717030
vt 0.287866 0.338910
vt 0.651998 0.338910
vt 0.288617 0.645068
vt 0.652749 0.645067
vt 0.652749 0.338910
vt 0.288617 0.338910
vt 0.651998 0.645067
vt 0.287866 0.645067
vt 0.509438 0.115835
vt 0.431177 0.115835
vt 0.431177 0.205358
vt 0.509438 0.205358
vt 0.133632 0.115835
vt 0.133632 0.205358
vt 0.806984 0.723802
vt 0.509438 0.723802
vt 0.509438 0.812113
vt 0.806984 0.812113
vt 0.806984 0.205358
vt 0.806984 0.115835
vt 0.431177 0.723802
vt 0.133632 0.723802
vt 0.133632 0.812113
vt 0.431177 0.812113
vt 0.509438 0.434090
vt 0.509438 0.319724
vt 0.431177 0.319724
vt 0.431177 0.434090
vt 0.298118 0.319724
vt 0.298118 0.434090
vt 0.642498 0.434090
vt 0.642498 0.319724
vt 0.721477 0.345682
vt 0.721477 0.638295
vt 0.642498 0.531636
vt 0.345670 0.345682
vt 0.345670 0.638295
vt 0.431177 0.531636
vt 0.509438 0.531636
vt 0.509438 0.626240
vt 0.642498 0.626240
vt 0.298118 0.531636
vt 0.298118 0.626240
vt 0.431177 0.626240
vt 0.133632 0.939266
vt 0.431177 0.939266
vt 0.509438 0.939266
vt 0.806984 0.939266
vt 0.133632 0.260175
vt 0.431177 0.260175
vt 0.509438 0.260175
vt 0.806984 0.260175
vt 0.509438 0.491989
vt 0.431177 0.491989
vt 0.594945 0.345682
vt 0.594945 0.345682
vt 0.721477 0.345682
vt 0.345670 0.345682
vt 0.345670 0.638295
vt 0.345670 0.491989
vt 0.594945 0.491989
vt 0.594945 0.638295
vt 0.219138 0.345682
vt 0.219138 0.638295
vt 0.721477 0.638295
vt 0.219138 0.638295
vt 0.219138 0.345682
vt 0.594945 0.638295
vt 0.000000 0.000000
vt 0.000000 0.000000
vt 0.000000 0.000000
vt 0.000000 0.000000
vt 0.000000 0.000000
vt 0.000000 0.000000
vt 0.000000 0.000000
vt 0.000000 0.000000
vt 0.404470 0.266947
vt 0.167605 0.266947
vt 0.773010 0.266947
vt 0.536145 0.266947
vt 0.167605 0.717030
vt 0.404470 0.717030
vt 0.536145 0.717030
vt 0.773010 0.717030
vt 0.287866 0.338910
vt 0.651998 0.338910
vt 0.288617 0.645068
vt 0.652749 0.645067
vt 0.652749 0.338910
vt 0.288617 0.338910
vt 0.651998 0.645067
vt 0.287866 0.645067
vn 0.0000 1.0000 0.0000
vn 0.0000 0.8688 0.4952
vn -0.1642 0.9864 0.0000
vn -0.5428 0.8399 0.0000
vn 0.0000 0.9437 -0.3309
vn 0.0000 0.0000 1.0000
vn 1.0000 0.0000 0.0000
vn -1.0000 0.0000 0.0000
vn 0.0000 0.0000 -1.0000
vn 0.0000 0.9539 0.3000
vn 0.1642 0.9864 0.0000
vn 0.0000 0.9754 -0.2206
vn 0.5428 0.8399 0.0000
vn 0.0000 -1.0000 -0.0001
vn 0.0000 -1.0000 -0.0000
vn 0.0000 -1.0000 0.0001
vn 0.0000 -0.8688 -0.4951
vn 0.1636 -0.9865 0.0000
vn 0.5416 -0.8407 0.0000
vn 0.0000 -0.9437 0.3309
vn 0.0007 0.0019 -1.0000
vn -1.0000 0.0075 0.0002
vn 0.0035 -1.0000 0.0006
vn 0.0003 -1.0000 0.0000
vn -0.0003 -1.0000 0.0000
vn -0.0035 -1.0000 -0.0006
vn 1.0000 0.0017 0.0001
vn -0.0008 0.0024 1.0000
vn -1.0000 0.0017 0.0001
vn -0.0007 0.0019 -1.0000
vn 1.0000 0.0075 0.0002
vn 0.0008 0.0024 1.0000
vn -0.0000 -0.9543 -0.2988
vn -0.1636 -0.9865 0.0000
vn -0.0000 -0.9756 0.2198
vn -0.5416 -0.8407 0.0000
vn -0.0004 -1.0000 0.0001
vn 0.0004 -1.0000 0.0001
vn -0.0035 -1.0000 0.0006
vn 0.0035 -1.0000 -0.0006
vn 0.0000 -1.0000 -0.0008
vn 0.0000 -1.0000 0.0008
vn -0.0005 -1.0000 -0.0003
vn -0.0005 -1.0000 0.0003
vn -0.0004 -1.0000 -0.0007
vn -0.0004 -1.0000 0.0007
vn 0.0005 -1.0000 -0.0003
vn 0.0004 -1.0000 -0.0007
vn 0.0004 -1.0000 0.0007
vn 0.0005 -1.0000 0.0003
vn 0.0000 -0.0584 -0.9983
vn 0.9997 0.0247 0.0002
vn -0.9997 0.0247 0.0002
vn 0.0005 -0.0854 0.9964
vn -0.0005 -0.0854 0.9964
vn -0.9986 0.0533 0.0000
vn 0.9986 0.0532 0.0000
vn -0.9986 0.0532 0.0000
vn 0.9986 0.0533 0.0000
vn 0.0003 -0.0559 -0.9984
vn -0.0003 -0.0559 -0.9984
vn 0.9996 0.0285 -0.0003
vn -0.9996 0.0285 -0.0003
vn 0.0000 -0.0728 0.9973
vn 0.9947 0.0000 0.1030
vn 0.9947 0.0000 -0.1030
vn -0.9947 0.0000 0.1030
vn -0.9947 0.0000 -0.1030
vn 0.6563 0.0000 0.7545
vn 0.6563 0.0000 -0.7545
vn -0.6563 0.0000 0.7545
vn -0.6563 0.0000 -0.7545
s off
f 5/1/1 11/2/1 12/3/1 6/4/1
f 1/5/1 6/4/1 12/3/1 10/6/1
f 64/7/1 4/8/1 8/9/1 65/10/1
f 5/1/1 2/11/1 9/12/1 11/2/1
f 62/13/1 7/14/1 3/15/1 63/16/1
f 13/17/1 15/18/1 16/19/1 14/20/1
f 11/2/2 14/20/2 16/19/2 12/3/2
f 16/19/1 15/18/1 19/21/1 20/22/1
f 13/17/1 14/20/1 18/23/1 17/24/1
f 47/25/3 17/24/3 23/26/3 48/27/3
f 51/28/4 15/18/4 22/29/4 52/30/4
f 21/31/1 23/26/1 27/32/1 25/33/1
f 24/34/1 22/29/1 26/35/1 28/36/1
f 25/33/1 26/35/1 22/29/1 21/31/1
f 7/14/5 26/35/5 25/33/5 8/9/5
f 3/15/1 7/14/1 31/37/1 29/38/1
f 8/9/1 4/8/1 30/39/1 32/40/1
f 8/9/1 32/40/1 31/37/1 7/14/1
f 12/3/1 58/41/1 59/42/1 10/6/1
f 9/12/1 60/43/1 61/44/1 11/2/1
f 53/45/1 65/10/1 62/13/1 54/46/1
f 68/47/6 67/48/6 47/25/6 50/49/6
f 57/50/7 56/51/7 69/52/7 52/30/7 51/28/7
f 55/53/1 72/54/1 65/10/1 53/45/1
f 66/55/1 70/56/1 63/16/1 59/42/1
f 71/57/1 67/48/1 60/43/1 64/7/1
f 56/51/1 57/50/1 58/41/1 54/46/1
f 70/56/8 66/55/8 46/58/8 43/59/8
f 69/52/9 70/56/9 43/59/9 52/30/9
f 67/48/7 71/57/7 48/27/7 47/25/7
f 66/55/6 57/50/6 51/28/6 46/58/6
f 72/54/8 55/53/8 68/47/8 50/49/8 49/60/8
f 71/57/9 72/54/9 49/60/9 48/27/9
f 52/30/10 22/29/10 24/34/10 43/59/10
f 43/59/11 24/34/11 19/21/11 46/58/11
f 46/58/12 19/21/12 15/18/12 51/28/12
f 48/27/10 23/26/10 21/31/10 49/60/10
f 49/60/13 21/31/13 13/17/13 50/49/13
f 50/49/12 13/17/12 17/24/12 47/25/12
f 52/61/1 43/62/1 46/63/1 51/64/1
f 50/65/1 47/66/1 48/67/1 49/68/1
f 69/52/1 56/51/1 54/46/1 62/13/1
f 68/47/1 55/53/1 53/45/1 61/44/1
f 61/44/1 53/45/1 54/46/1 58/41/1
f 44/69/1 35/70/1 59/42/1 58/41/1
f 34/71/1 42/72/1 61/44/1 60/43/1
f 40/73/1 45/74/1 62/13/1 63/16/1
f 41/75/1 37/76/1 64/7/1 65/10/1
f 36/77/1 57/50/1 66/55/1
f 33/78/1 67/48/1 68/47/1
f 38/79/1 70/56/1 69/52/1
f 39/80/1 72/54/1 71/57/1
f 42/72/1 33/81/1 68/47/1 61/44/1
f 39/80/1 41/75/1 65/10/1 72/54/1
f 35/70/1 36/82/1 66/55/1 59/42/1
f 38/79/1 40/73/1 63/16/1 70/56/1
f 36/77/1 44/69/1 58/41/1 57/50/1
f 33/78/1 34/71/1 60/43/1 67/48/1
f 37/76/1 39/83/1 71/57/1 64/7/1
f 45/74/1 38/84/1 69/52/1 62/13/1
f 77/85/14 78/86/14 84/87/14 83/88/14
f 73/89/15 82/90/15 84/87/15 78/86/15
f 136/91/15 137/92/15 80/93/15 76/94/15
f 77/85/15 83/88/15 81/95/15 74/96/15
f 134/97/15 135/98/15 75/99/15 79/100/15
f 85/101/16 86/102/16 88/103/16 87/104/16
f 83/88/17 84/87/17 88/103/17 86/102/17
f 88/103/15 92/105/15 91/106/15 87/104/15
f 85/101/15 89/107/15 90/108/15 86/102/15
f 119/109/18 120/110/18 95/111/18 89/107/18
f 123/112/19 124/113/19 94/114/19 87/104/19
f 93/115/15 97/116/15 99/117/15 95/111/15
f 96/118/15 100/119/15 98/120/15 94/114/15
f 97/116/15 93/115/15 94/114/15 98/120/15
f 79/100/20 80/93/20 97/116/20 98/120/20
f 75/99/15 101/121/15 103/122/15 79/100/15
f 80/93/15 104/123/15 102/124/15 76/94/15
f 80/93/15 79/100/15 103/122/15 104/123/15
f 84/87/16 82/90/16 131/125/16 130/126/16
f 81/95/16 83/88/16 133/127/16 132/128/16
f 125/129/15 126/130/15 134/97/15 137/92/15
f 140/131/21 122/132/21 119/109/21 139/133/21
f 129/134/22 123/112/22 124/113/22 141/135/22 128/136/22
f 127/137/23 125/129/23 137/92/23 144/138/23
f 138/139/24 131/125/24 135/98/24 142/140/24
f 143/141/25 136/91/25 132/128/25 139/133/25
f 128/136/26 126/130/26 130/126/26 129/134/26
f 142/140/27 115/142/27 118/143/27 138/139/27
f 141/135/28 124/113/28 115/142/28 142/140/28
f 139/133/29 119/109/29 120/110/29 143/141/29
f 138/139/30 118/143/30 123/112/30 129/134/30
f 144/138/31 121/144/31 122/132/31 140/131/31 127/137/31
f 143/141/32 120/110/32 121/144/32 144/138/32
f 124/113/33 115/142/33 96/118/33 94/114/33
f 115/142/34 118/143/34 91/106/34 96/118/34
f 118/143/35 123/112/35 87/104/35 91/106/35
f 120/110/33 121/144/33 93/115/33 95/111/33
f 121/144/36 122/132/36 85/101/36 93/115/36
f 122/132/35 119/109/35 89/107/35 85/101/35
f 124/145/37 123/146/37 118/147/37 115/148/37
f 122/149/38 121/150/38 120/151/38 119/152/38
f 141/135/39 134/97/39 126/130/39 128/136/39
f 140/131/40 133/127/40 125/129/40 127/137/40
f 133/127/15 130/126/15 126/130/15 125/129/15
f 116/153/15 130/126/15 131/125/15 107/154/15
f 106/155/15 132/128/15 133/127/15 114/156/15
f 112/157/15 135/98/15 134/97/15 117/158/15
f 113/159/15 137/92/15 136/91/15 109/160/15
f 108/161/41 138/139/41 129/134/41
f 105/162/41 140/131/41 139/133/41
f 110/163/42 141/135/42 142/140/42
f 111/164/42 143/141/42 144/138/42
f 114/156/43 133/127/43 140/131/43 105/165/43
f 111/164/44 144/138/44 137/92/44 113/159/44
f 107/154/45 131/125/45 138/139/45 108/166/45
f 110/163/46 142/140/46 135/98/46 112/157/46
f 108/161/47 129/134/47 130/126/47 116/153/47
f 105/162/48 139/133/48 132/128/48 106/155/48
f 109/160/49 136/91/49 143/141/49 111/167/49
f 117/158/50 134/97/50 141/135/50 110/168/50
f 5/1/6 6/4/6 78/86/6 77/85/6
f 2/11/6 5/1/6 77/85/6 74/96/6
f 6/4/6 1/5/6 73/89/6 78/86/6
f 11/2/8 61/44/8 133/127/8 83/88/8
f 4/8/7 64/7/7 136/91/7 76/94/7
f 9/12/7 2/11/7 74/96/7 81/95/7
f 1/5/8 10/6/8 82/90/8 73/89/8
f 10/6/8 59/42/8 131/125/8 82/90/8
f 7/14/7 62/13/7 134/97/7 79/100/7
f 15/18/51 13/17/51 85/101/51 87/104/51
f 12/3/8 16/19/8 88/103/8 84/87/8
f 14/20/7 11/2/7 83/88/7 86/102/7
f 17/24/52 18/23/52 90/108/52 89/107/52
f 20/22/53 19/21/53 91/106/53 92/105/53
f 16/19/54 20/22/54 92/105/54 88/103/54
f 18/23/55 14/20/55 86/102/55 90/108/55
f 13/17/56 21/31/56 93/115/56 85/101/56
f 23/26/57 17/24/57 89/107/57 95/111/57
f 19/21/58 24/34/58 96/118/58 91/106/58
f 22/29/59 15/18/59 87/104/59 94/114/59
f 28/36/60 26/35/60 98/120/60 100/119/60
f 25/33/61 27/32/61 99/117/61 97/116/61
f 27/32/62 23/26/62 95/111/62 99/117/62
f 24/34/63 28/36/63 100/119/63 96/118/63
f 21/31/64 22/29/64 94/114/64 93/115/64
f 8/9/7 25/33/7 97/116/7 80/93/7
f 26/35/8 7/14/8 79/100/8 98/120/8
f 31/37/9 32/40/9 104/123/9 103/122/9
f 32/40/9 30/39/9 102/124/9 104/123/9
f 29/38/9 31/37/9 103/122/9 101/121/9
f 3/15/8 29/38/8 101/121/8 75/99/8
f 30/39/7 4/8/7 76/94/7 102/124/7
f 60/43/7 9/12/7 81/95/7 132/128/7
f 58/41/7 12/3/7 84/87/7 130/126/7
f 61/44/6 58/41/6 130/126/6 133/127/6
f 65/10/8 8/9/8 80/93/8 137/92/8
f 63/16/8 3/15/8 75/99/8 135/98/8
f 62/13/9 65/10/9 137/92/9 134/97/9
f 59/42/8 63/16/8 135/98/8 131/125/8
f 64/7/7 60/43/7 132/128/7 136/91/7
f 35/70/9 44/69/9 116/153/9 107/154/9
f 42/72/9 34/71/9 106/155/9 114/156/9
f 45/74/6 40/73/6 112/157/6 117/158/6
f 37/76/6 41/75/6 113/159/6 109/160/6
f 33/81/65 42/72/65 114/156/65 105/165/65
f 41/75/66 39/80/66 111/164/66 113/159/66
f 44/69/67 36/77/67 108/161/67 116/153/67
f 38/84/68 45/74/68 117/158/68 110/168/68
f 36/82/69 35/70/69 107/154/69 108/166/69
f 40/73/70 38/79/70 110/163/70 112/157/70
f 34/71/71 33/78/71 105/162/71 106/155/71
f 39/83/72 37/76/72 109/160/72 111/167/72
